<svg width="32" height="32" viewBox="0 0 32 32" fill="none" xmlns="http://www.w3.org/2000/svg">
<path d="M20.6949 7.1987H17.3584C16.7555 7.20062 16.7781 8.09918 17.3584 8.0939H20.6949V8.55326H17.3584C16.7589 8.54798 16.781 9.44606 17.3584 9.44846H20.6949V9.9179H17.3584C16.7589 9.9179 16.781 10.8155 17.3584 10.8131H20.6949V11.2605H17.3584C16.7714 11.2648 16.781 12.1633 17.3584 12.1662H20.6949V12.6145H17.3584C16.7714 12.6126 16.769 13.5097 17.3584 13.5097H20.6949V13.9571H17.3584C16.7714 13.959 16.769 14.8571 17.3584 14.8528H20.6949V15.3112H17.3584C16.7714 15.3059 16.769 16.203 17.3584 16.2064H20.6949V16.6528H17.3584C16.7714 16.6523 16.781 17.5513 17.3584 17.5485H20.6949V26.2648C20.6968 27.5929 22.7142 27.5689 22.72 26.2648V5.86718C22.7142 5.26046 22.216 4.49342 21.3962 4.49102H17.3584C16.7555 4.4915 16.7781 5.39006 17.3584 5.38622L20.6949 5.39726V5.84366H17.3584C16.7565 5.84078 16.779 6.73886 17.3584 6.73934H20.6949V7.1987ZM17.129 22.6518C17.127 21.1014 15.52 19.4339 13.6 20.5139V14.584L12.3582 4.80398C12.3323 4.54526 12.113 4.4843 11.9656 4.47998C11.8134 4.4843 11.5086 4.54526 11.4755 4.80398L10.24 14.584V20.5139C8.31999 19.4339 6.76479 21.112 6.76431 22.6398C6.76479 23.9992 7.81119 25.1157 9.22719 25.1123C10.6538 25.1157 11.68 23.8643 11.68 22.6398V16.48H12.16V22.6398C12.16 24.0107 13.2218 25.0254 14.4016 25.0897C14.3819 25.8414 14.6272 26.9137 15.089 27.339C15.6304 27.8382 16.275 27.1998 16.0106 26.68C15.7552 26.1961 15.5046 25.9096 15.7082 24.8531C16.5587 24.4595 17.127 23.631 17.129 22.6518ZM9.28191 23.8715C8.95824 23.8715 8.64783 23.7429 8.41896 23.5141C8.19009 23.2852 8.06151 22.9748 8.06151 22.6511C8.06151 22.3274 8.19009 22.017 8.41896 21.7881C8.64783 21.5593 8.95824 21.4307 9.28191 21.4307C9.94719 21.4345 10.4891 21.9803 10.4939 22.6518C10.4925 22.9736 10.3647 23.2818 10.1379 23.51C9.91109 23.7383 9.60363 23.8681 9.28191 23.8715ZM13.396 22.6518C13.3971 22.3298 13.5249 22.0212 13.7518 21.7926C13.9787 21.5641 14.2865 21.4341 14.6085 21.4307C14.9306 21.4336 15.2386 21.5635 15.4655 21.7921C15.6924 22.0208 15.82 22.3297 15.8205 22.6518C15.82 22.9738 15.6924 23.2826 15.4654 23.511C15.2384 23.7394 14.9305 23.869 14.6085 23.8715C14.2866 23.8686 13.9788 23.7389 13.7518 23.5106C13.5248 23.2823 13.397 22.9737 13.396 22.6518Z" fill="#979797"/>
</svg>
