<svg width="32" height="32" viewBox="0 0 32 32" fill="none" xmlns="http://www.w3.org/2000/svg">
<path d="M21 19C20.3 19 19.7083 18.7583 19.225 18.275C18.7417 17.7917 18.5 17.2 18.5 16.5C18.5 15.8 18.7417 15.2083 19.225 14.725C19.7083 14.2417 20.3 14 21 14C21.7 14 22.2917 14.2417 22.775 14.725C23.2583 15.2083 23.5 15.8 23.5 16.5C23.5 17.2 23.2583 17.7917 22.775 18.275C22.2917 18.7583 21.7 19 21 19ZM17 24C16.7167 24 16.4793 23.904 16.288 23.712C16.096 23.5207 16 23.2833 16 23V22.6C16 22.2 16.104 21.8293 16.312 21.488C16.5207 21.146 16.8167 20.9 17.2 20.75C17.8 20.5 18.421 20.3127 19.063 20.188C19.7043 20.0627 20.35 20 21 20C21.65 20 22.296 20.0627 22.938 20.188C23.5793 20.3127 24.2 20.5 24.8 20.75C25.1833 20.9 25.4793 21.146 25.688 21.488C25.896 21.8293 26 22.2 26 22.6V23C26 23.2833 25.904 23.5207 25.712 23.712C25.5207 23.904 25.2833 24 25 24H17ZM14 16C12.9 16 11.9583 15.6083 11.175 14.825C10.3917 14.0417 10 13.1 10 12C10 10.9 10.3917 9.95833 11.175 9.175C11.9583 8.39167 12.9 8 14 8C15.1 8 16.0417 8.39167 16.825 9.175C17.6083 9.95833 18 10.9 18 12C18 13.1 17.6083 14.0417 16.825 14.825C16.0417 15.6083 15.1 16 14 16ZM7 24C6.71667 24 6.47933 23.904 6.288 23.712C6.096 23.5207 6 23.2833 6 23V21C6 20.5667 6.15 20.1377 6.45 19.713C6.75 19.2877 7.19167 18.9167 7.775 18.6C8.675 18.1167 9.65833 17.7293 10.725 17.438C11.7917 17.146 12.8833 17 14 17C14.45 17 14.9293 17.0333 15.438 17.1C15.946 17.1667 16.4667 17.2667 17 17.4V18.7C16.7667 18.7833 16.5667 18.8667 16.4 18.95C16.2333 19.0333 16.0583 19.125 15.875 19.225C15.2583 19.575 14.7917 20.0333 14.475 20.6C14.1583 21.1667 14 21.6333 14 22V24H7Z" fill="#979797"/>
</svg>
