<svg width="24" height="24" viewBox="0 0 24 24" fill="none" xmlns="http://www.w3.org/2000/svg">
<path d="M9.48879 14.2012L16.8969 7.3207C17.1271 7.1069 17.42 7 17.7758 7C18.1315 7 18.4245 7.1069 18.6547 7.3207C18.8849 7.5345 19 7.80661 19 8.13703C19 8.46744 18.8849 8.73955 18.6547 8.95335L10.3677 16.6501C10.1166 16.8834 9.82362 17 9.48879 17C9.15396 17 8.86099 16.8834 8.60987 16.6501L5.34529 13.6181C5.1151 13.4043 5 13.1322 5 12.8017C5 12.4713 5.1151 12.1992 5.34529 11.9854C5.57549 11.7716 5.86846 11.6647 6.22422 11.6647C6.57997 11.6647 6.87294 11.7716 7.10314 11.9854L9.48879 14.2012Z" fill="white"/>
</svg>
