<svg width="20" height="20" viewBox="0 0 20 20" fill="none" xmlns="http://www.w3.org/2000/svg">
<path d="M6.76664 7.258L9.99997 10.4913L13.2333 7.258C13.3105 7.18085 13.402 7.11965 13.5028 7.0779C13.6037 7.03615 13.7117 7.01465 13.8208 7.01465C13.9299 7.01465 14.038 7.03615 14.1388 7.0779C14.2396 7.11965 14.3312 7.18085 14.4083 7.258C14.4855 7.33516 14.5467 7.42675 14.5884 7.52755C14.6302 7.62836 14.6517 7.7364 14.6517 7.8455C14.6517 7.95461 14.6302 8.06265 14.5884 8.16346C14.5467 8.26426 14.4855 8.35585 14.4083 8.433L10.5833 12.258C10.5062 12.3353 10.4146 12.3965 10.3138 12.4384C10.213 12.4802 10.1049 12.5017 9.9958 12.5017C9.88666 12.5017 9.77859 12.4802 9.67778 12.4384C9.57697 12.3965 9.4854 12.3353 9.4083 12.258L5.5833 8.433C5.50605 8.35591 5.44476 8.26434 5.40294 8.16353C5.36112 8.06271 5.3396 7.95465 5.3396 7.8455C5.3396 7.73636 5.36112 7.6283 5.40294 7.52748C5.44476 7.42667 5.50605 7.3351 5.5833 7.258C5.9083 6.94134 6.44164 6.933 6.76664 7.258Z" fill="#979797"/>
</svg>
