<svg width="20" height="20" viewBox="0 0 20 20" fill="none" xmlns="http://www.w3.org/2000/svg">
<path d="M10.0007 5.41667C11.5329 5.41157 13.0355 5.83899 14.3357 6.64977C15.636 7.46056 16.681 8.6218 17.3506 10C15.9756 12.8083 13.1673 14.5833 10.0007 14.5833C6.83398 14.5833 4.02565 12.8083 2.65065 10C3.32033 8.6218 4.36534 7.46056 5.66555 6.64977C6.96576 5.83899 8.46837 5.41157 10.0007 5.41667ZM10.0007 3.75C5.83398 3.75 2.27565 6.34167 0.833984 10C2.27565 13.6583 5.83398 16.25 10.0007 16.25C14.1673 16.25 17.7256 13.6583 19.1673 10C17.7256 6.34167 14.1673 3.75 10.0007 3.75ZM10.0007 7.91667C10.5532 7.91667 11.0831 8.13616 11.4738 8.52686C11.8645 8.91756 12.084 9.44747 12.084 10C12.084 10.5525 11.8645 11.0824 11.4738 11.4731C11.0831 11.8638 10.5532 12.0833 10.0007 12.0833C9.44812 12.0833 8.91821 11.8638 8.52751 11.4731C8.13681 11.0824 7.91732 10.5525 7.91732 10C7.91732 9.44747 8.13681 8.91756 8.52751 8.52686C8.91821 8.13616 9.44812 7.91667 10.0007 7.91667ZM10.0007 6.25C7.93398 6.25 6.25065 7.93333 6.25065 10C6.25065 12.0667 7.93398 13.75 10.0007 13.75C12.0673 13.75 13.7506 12.0667 13.7506 10C13.7506 7.93333 12.0673 6.25 10.0007 6.25Z" fill="#979797"/>
</svg>
