<svg width="32" height="32" viewBox="0 0 32 32" fill="none" xmlns="http://www.w3.org/2000/svg">
<path d="M11 18H17.025C17.3083 18 17.5417 17.904 17.725 17.712C17.9083 17.5207 18 17.2833 18 17C18 16.7167 17.9043 16.479 17.713 16.287C17.521 16.0957 17.2833 16 17 16H10.975C10.6917 16 10.4583 16.0957 10.275 16.287C10.0917 16.479 10 16.7167 10 17C10 17.2833 10.0957 17.5207 10.287 17.712C10.479 17.904 10.7167 18 11 18ZM11 15H21.025C21.3083 15 21.5417 14.904 21.725 14.712C21.9083 14.5207 22 14.2833 22 14C22 13.7167 21.904 13.479 21.712 13.287C21.5207 13.0957 21.2833 13 21 13H10.975C10.6917 13 10.4583 13.0957 10.275 13.287C10.0917 13.479 10 13.7167 10 14C10 14.2833 10.0957 14.5207 10.287 14.712C10.479 14.904 10.7167 15 11 15ZM11 12H21.025C21.3083 12 21.5417 11.9043 21.725 11.713C21.9083 11.521 22 11.2833 22 11C22 10.7167 21.904 10.479 21.712 10.287C21.5207 10.0957 21.2833 10 21 10H10.975C10.6917 10 10.4583 10.0957 10.275 10.287C10.0917 10.479 10 10.7167 10 11C10 11.2833 10.0957 11.521 10.287 11.713C10.479 11.9043 10.7167 12 11 12ZM6 23.575V8C6 7.45 6.196 6.979 6.588 6.587C6.97933 6.19567 7.45 6 8 6H24C24.55 6 25.021 6.19567 25.413 6.587C25.8043 6.979 26 7.45 26 8V20C26 20.55 25.8043 21.021 25.413 21.413C25.021 21.8043 24.55 22 24 22H10L7.7 24.3C7.38333 24.6167 7.02067 24.6873 6.612 24.512C6.204 24.3373 6 24.025 6 23.575Z" fill="#979797"/>
</svg>
