<svg width="20" height="20" viewBox="0 0 20 20" fill="none" xmlns="http://www.w3.org/2000/svg">
<path d="M12.9169 11.6659H12.2586L12.0252 11.4409C12.546 10.8359 12.9266 10.1232 13.1398 9.35392C13.3531 8.58463 13.3936 7.77771 13.2586 6.99091C12.8669 4.67425 10.9336 2.82425 8.60022 2.54091C7.7799 2.43713 6.94671 2.52239 6.16441 2.79015C5.38211 3.05792 4.67143 3.5011 4.08675 4.08577C3.50207 4.67045 3.0589 5.38113 2.79113 6.16343C2.52337 6.94574 2.43811 7.77893 2.54189 8.59925C2.82522 10.9326 4.67522 12.8659 6.99189 13.2576C7.77868 13.3926 8.5856 13.3521 9.3549 13.1389C10.1242 12.9257 10.8369 12.545 11.4419 12.0242L11.6669 12.2576V12.9159L15.2086 16.4576C15.5502 16.7992 16.1086 16.7992 16.4502 16.4576C16.7919 16.1159 16.7919 15.5576 16.4502 15.2159L12.9169 11.6659ZM7.91689 11.6659C5.84189 11.6659 4.16689 9.99091 4.16689 7.91591C4.16689 5.84091 5.84189 4.16591 7.91689 4.16591C9.99189 4.16591 11.6669 5.84091 11.6669 7.91591C11.6669 9.99091 9.99189 11.6659 7.91689 11.6659Z" fill="#979797"/>
</svg>
