<svg width="24" height="25" viewBox="0 0 24 25" fill="none" xmlns="http://www.w3.org/2000/svg">
<path d="M10.1459 3.74792C10.2953 3.37864 10.5516 3.06238 10.8819 2.8397C11.2122 2.61701 11.6015 2.49805 11.9999 2.49805C12.3983 2.49805 12.7876 2.61701 13.1179 2.8397C13.4482 3.06238 13.7045 3.37864 13.8539 3.74792C15.3327 4.15461 16.637 5.03548 17.5667 6.25526C18.4963 7.47504 18.9998 8.96627 18.9999 10.4999V15.1969L20.8319 17.9449C20.9324 18.0955 20.9901 18.2706 20.9989 18.4514C21.0077 18.6322 20.9672 18.8121 20.8818 18.9717C20.7964 19.1313 20.6692 19.2648 20.5139 19.3578C20.3586 19.4508 20.181 19.5 19.9999 19.4999H15.4649C15.3445 20.333 14.928 21.0949 14.2916 21.6459C13.6552 22.1969 12.8417 22.5001 11.9999 22.5001C11.1581 22.5001 10.3446 22.1969 9.70821 21.6459C9.07184 21.0949 8.65531 20.333 8.53491 19.4999H3.99991C3.81886 19.5 3.64121 19.4508 3.4859 19.3578C3.33058 19.2648 3.20344 19.1313 3.11803 18.9717C3.03262 18.8121 2.99215 18.6322 3.00093 18.4514C3.00972 18.2706 3.06743 18.0955 3.16791 17.9449L4.99991 15.1969V10.4999C4.99991 7.27592 7.17991 4.55992 10.1459 3.74792ZM10.5859 19.4999C10.6892 19.7926 10.8807 20.046 11.134 20.2252C11.3874 20.4045 11.6901 20.5007 12.0004 20.5007C12.3107 20.5007 12.6134 20.4045 12.8668 20.2252C13.1201 20.046 13.3116 19.7926 13.4149 19.4999H10.5849H10.5859ZM11.9999 5.49992C10.6738 5.49992 9.40205 6.02671 8.46437 6.96439C7.52669 7.90207 6.99991 9.17384 6.99991 10.4999V15.4999C6.99995 15.6975 6.94149 15.8906 6.83191 16.0549L5.86891 17.4999H18.1299L17.1669 16.0549C17.0577 15.8905 16.9996 15.6974 16.9999 15.4999V10.4999C16.9999 9.17384 16.4731 7.90207 15.5354 6.96439C14.5978 6.02671 13.326 5.49992 11.9999 5.49992Z" fill="#343434"/>
</svg>
