<svg width="56" height="60" viewBox="0 0 56 60" fill="none" xmlns="http://www.w3.org/2000/svg">
<g filter="url(#filter0_d_1050_2505)">
<path d="M36.2025 31.6616C35.9284 32.1042 35.3257 32.2012 34.9265 31.8669L34.5678 31.5665C34.0154 31.104 33.1885 31.1975 32.7535 31.7718L31.9943 32.774C31.5696 33.3346 30.8189 33.5361 30.1705 33.2635C29.5436 32.9998 28.8179 33.1788 28.3855 33.7039L26.9607 35.4343C26.8629 35.553 26.809 35.7017 26.808 35.8555C26.8054 36.246 27.1361 36.5558 27.5256 36.5278L36.358 35.893C37.1253 35.8379 37.724 35.2071 37.7391 34.438L37.7845 32.1287C37.8016 31.2591 36.6605 30.9222 36.2025 31.6616ZM26.0505 29.8333C26.0453 29.0855 26.6399 28.4713 27.3875 28.4523C27.6454 28.4457 27.8969 28.5192 28.1331 28.6232C28.2576 28.6781 28.3889 28.7275 28.5565 28.7909C29.0598 28.9847 29.6444 29.1829 30.5835 28.8304C31.2497 28.5906 31.8671 28.1698 32.5734 28.121L34.2398 28.0061C36.599 27.8433 38.5837 29.7518 38.5134 32.1155L38.4905 32.8829C38.4293 34.9404 36.8165 36.6156 34.7628 36.7548L30.3436 37.0543C28.0443 37.2102 26.0892 35.3959 26.0732 33.0914L26.0505 29.8333ZM39.4405 27.1601C39.4424 26.9697 39.2806 26.8185 39.0908 26.8334C38.9001 26.8484 38.738 26.696 38.741 26.5049L38.892 16.9442C38.9274 14.7036 37.1154 12.871 34.8745 12.8811L19.982 12.9481C17.764 12.9581 15.9776 14.771 16.0002 16.9889L16.1847 35.0649C16.1905 35.6393 16.6679 36.0965 17.2421 36.0775L17.2892 36.076C18.0277 36.0516 18.4279 35.2874 17.9184 34.7521C17.2082 34.0104 17.6093 32.9307 18.1501 32.281C18.8937 31.1646 22.2086 30.0102 22.2436 28.0958C22.2555 27.4458 22.2496 26.6094 21.7865 25.943C21.7466 25.8856 21.6534 25.9844 21.6485 26.0541C21.6425 26.1404 21.532 26.0899 21.4989 26.01C21.4432 25.8749 21.3845 25.7023 21.3487 25.5103C21.344 25.4849 21.3354 25.4603 21.3218 25.4383C21.2455 25.3147 21.1755 25.242 21.101 25.1138C21.068 25.057 20.9609 25.1237 20.9426 25.1867C20.9186 25.2698 20.7957 25.2057 20.7807 25.1205C20.763 25.0207 20.7475 24.9111 20.739 24.8011C20.7333 24.7279 20.6221 24.7623 20.596 24.8309C20.5664 24.9088 20.4601 24.8417 20.4479 24.7593C20.41 24.5037 20.3776 24.163 20.4229 23.9205C20.4303 23.8806 20.432 23.8401 20.4225 23.8007C20.4041 23.7243 20.3804 23.6346 20.3558 23.5287C20.105 22.4467 21.7832 21.6999 22.7634 21.1776C22.9389 21.0842 23.0965 20.9631 23.225 20.8121C23.4547 20.5432 23.679 19.7606 23.4241 18.1425C23.2624 17.1181 22.7557 15.5698 22.5481 14.9542C22.544 14.9418 22.5298 14.937 22.5185 14.9434C22.5107 14.9477 22.5065 14.9563 22.5082 14.965C22.5983 15.4442 22.778 16.4217 22.8358 16.8955C23.0151 18.3455 23.051 18.8473 22.8189 19.481C22.6217 20.0318 22.2563 20.3665 21.3917 20.6887C20.527 21.012 19.5537 19.8791 19.4908 19.8157C18.7672 19.0889 18.2685 17.9799 18.2561 17.4666C18.2478 16.9757 18.5725 16.6938 18.8191 16.3428C18.8614 16.2826 18.7378 16.2234 18.6663 16.2409C18.5733 16.2638 18.5836 16.1256 18.6616 16.07C18.8159 15.96 19.0082 15.8314 19.2146 15.7133C19.3586 15.6393 19.4611 15.584 19.5858 15.5068C19.6463 15.4693 19.6252 15.3785 19.5545 15.3707C19.474 15.3617 19.4587 15.2531 19.5349 15.2257C19.6477 15.1852 19.7846 15.1382 19.9321 15.0923C20.0075 15.0689 19.8641 14.9417 19.7856 14.9335C19.7062 14.9252 19.8297 14.8231 19.9059 14.7991C20.312 14.6705 20.9971 14.4561 21.5801 14.2857C22.1937 14.1104 22.7584 14.2453 23.0286 14.7499C23.2627 15.1876 23.5196 15.5031 23.9324 15.7572C24.4035 16.0472 24.9843 15.9936 25.5158 15.8401C25.6867 15.7907 25.8776 15.746 26.1427 15.7012C26.2144 15.6891 26.2818 15.657 26.3375 15.6103C26.6484 15.3491 26.9165 15.2019 27.1151 15.1191C27.2185 15.0759 27.3711 15.1088 27.3011 15.1962C27.2366 15.2769 27.2681 15.4674 27.3581 15.4166C27.3892 15.399 27.42 15.382 27.45 15.3655C27.5414 15.3156 27.6522 15.4545 27.5958 15.542C27.5903 15.5505 27.5849 15.5591 27.5794 15.5678C27.5717 15.58 27.5712 15.5954 27.578 15.6081C27.5881 15.6268 27.611 15.6344 27.6303 15.6256C27.8414 15.5304 28.0642 15.449 28.2393 15.39C28.3278 15.3602 28.4565 15.4006 28.3928 15.4688C28.342 15.5231 28.3137 15.6792 28.3875 15.6881C28.7276 15.7293 29.2144 15.7994 29.4223 15.8473C30.8995 16.0458 31.3894 14.4549 31.9804 14.3145C32.7212 14.1393 33.0565 14.0208 34.1356 15.3545C35.0607 16.5008 35.6677 18.4343 35.2181 18.8018C34.8409 19.1059 34.2259 18.5555 33.5902 17.5439C33.2273 16.9722 33.0134 16.3176 32.9682 15.6404C32.944 15.3691 32.6766 15.4627 32.6463 15.7334C32.6167 15.9972 32.5418 16.9322 32.8372 17.5838C32.8805 17.6794 32.8899 17.7842 32.8605 17.885C32.8111 18.0542 32.6517 18.0804 32.5341 17.949C32.0179 17.372 31.1833 16.9129 31.0356 16.7772C31.6047 17.3635 32.9109 18.711 33.3365 19.9104C33.738 21.0437 33.3198 21.9947 33.5562 22.2795C33.6229 22.3609 34.5253 23.7934 34.6517 24.4768C34.8067 25.3039 34.6295 26.1221 34.3244 26.7788C34.0858 27.2923 33.5377 27.5548 32.9721 27.5796L32.6477 27.5938C32.5858 27.5965 32.5178 27.5836 32.4601 27.5607C32.24 27.4733 32.1981 27.2103 32.3148 27.0043C32.3733 26.901 32.4222 26.8059 32.4386 26.7558C32.4431 26.742 32.441 26.7274 32.4353 26.7141C32.4124 26.66 32.3408 26.6483 32.3002 26.6908C31.8343 27.1792 31.1528 27.6173 30.5945 27.8584C29.8184 28.1928 28.9844 28.0347 28.4562 27.8017C27.1695 27.2393 25.9923 26.2595 25.4803 25.7927C25.396 25.7158 25.2338 25.7817 25.2997 25.8749C25.3053 25.8828 25.311 25.8887 25.3166 25.8966C25.5124 26.1738 25.8531 26.5803 26.2566 26.9992C26.5759 27.3307 26.3478 27.9344 25.8876 27.9339C25.6142 27.9336 25.3936 28.1573 25.3978 28.4306L25.4894 34.4108C25.4934 34.6717 25.3054 34.887 25.045 34.9049C24.8057 34.9213 24.5813 34.7493 24.5261 34.5159C24.254 33.3635 23.6897 32.5465 23.04 32.0135C22.4022 31.493 21.4676 31.2862 20.5405 31.3624C20.5334 31.363 20.5267 31.366 20.5214 31.371C20.5008 31.3906 20.5146 31.4257 20.5431 31.4264C21.2775 31.4458 21.985 31.7109 22.5533 32.1808C23.2532 32.7442 23.7217 34.0505 23.8616 34.8211C24.0405 35.8062 24.1246 36.8464 23.2336 37.8406C22.8777 38.2365 22.2035 38.4874 21.47 38.4442C21.0547 38.4197 20.6754 38.8906 21.0788 38.9925C21.9967 39.2246 22.8999 39.1615 23.5803 38.5991C24.0961 38.1735 24.4696 37.2639 24.5899 36.2306C24.6161 36.0063 24.7966 35.8269 25.0222 35.8193C25.2633 35.8111 25.4649 36.0008 25.4715 36.2419L25.4894 36.8978C25.5055 37.4899 25.9929 37.96 26.5852 37.9547L35.4078 37.8764C37.5873 37.8571 39.3501 36.0965 39.3721 33.9171L39.4405 27.1601ZM31.7995 20.0996C31.7506 20.1822 31.6853 20.2335 31.7434 20.5277L31.7462 20.5444L31.757 20.5832L31.7844 20.672C31.8786 20.9386 31.984 21.1956 32.1513 21.3885C32.254 21.5068 32.4151 21.5417 32.5715 21.5503C32.6998 21.5594 32.8053 21.5776 32.892 21.6018C33.0156 21.6362 33.1545 21.578 33.1627 21.4499C33.1893 21.0256 33.3733 20.3207 32.6114 19.8525C32.3511 19.6941 31.9743 19.6756 31.7847 19.7914C31.759 19.8071 31.768 19.8435 31.7953 19.8561C32.0011 19.9567 31.8476 20.0146 31.7995 20.0996ZM33.6148 24.2854C33.5153 24.2155 33.0195 24.1834 32.6681 24.185C31.9978 24.1897 31.2586 24.3404 31.0894 24.4447C30.7799 24.6343 30.8658 25.0337 31.0577 25.216C31.5969 25.7249 32.081 26.0798 32.6331 26.0677C32.9723 26.0612 33.3269 25.5621 33.5909 25.1021C33.7712 24.7842 33.8115 24.4248 33.6148 24.2854ZM28.1469 20.2183C28.3536 20.0606 27.2654 19.7026 26.3335 20.198C25.646 20.5647 25.5212 21.5005 26.0722 22.1011C26.1563 22.193 26.2878 22.214 26.407 22.1779C26.6685 22.0985 26.9352 22.0388 27.205 21.9992C27.6372 21.9357 28.1117 21.7861 28.1917 21.3566C28.2058 21.2813 28.2149 21.1979 28.2177 21.1055C28.2375 20.4714 27.7527 20.518 28.1469 20.2183Z" fill="#0172D2"/>
</g>
<defs>
<filter id="filter0_d_1050_2505" x="0" y="0.881073" width="55.4404" height="58.2379" filterUnits="userSpaceOnUse" color-interpolation-filters="sRGB">
<feFlood flood-opacity="0" result="BackgroundImageFix"/>
<feColorMatrix in="SourceAlpha" type="matrix" values="0 0 0 0 0 0 0 0 0 0 0 0 0 0 0 0 0 0 127 0" result="hardAlpha"/>
<feOffset dy="4"/>
<feGaussianBlur stdDeviation="8"/>
<feComposite in2="hardAlpha" operator="out"/>
<feColorMatrix type="matrix" values="0 0 0 0 0.00392157 0 0 0 0 0.447059 0 0 0 0 0.823529 0 0 0 0.21 0"/>
<feBlend mode="normal" in2="BackgroundImageFix" result="effect1_dropShadow_1050_2505"/>
<feBlend mode="normal" in="SourceGraphic" in2="effect1_dropShadow_1050_2505" result="shape"/>
</filter>
</defs>
</svg>
